<svg width="20" height="20" viewBox="0 0 20 20" fill="none" xmlns="http://www.w3.org/2000/svg">
<g clip-path="url(#clip0_1975_4254)">
<path d="M20.0001 10.2297C20.0001 9.54989 19.9439 8.86644 19.8239 8.19769H10.2006V12.0485H15.7114C15.4827 13.2905 14.748 14.3891 13.672 15.0873V17.5859H16.9598C18.8904 15.8442 20.0001 13.2721 20.0001 10.2297Z" fill="#4285F4"/>
<path d="M10.2005 20C12.9522 20 15.2727 19.1145 16.9634 17.5859L13.6757 15.0873C12.761 15.6972 11.5801 16.0426 10.2043 16.0426C7.54261 16.0426 5.28581 14.2826 4.47606 11.9162H1.08337V14.492C2.81533 17.8688 6.34298 20 10.2005 20Z" fill="#34A853"/>
<path d="M4.4724 11.9162C4.04503 10.6743 4.04503 9.32941 4.4724 8.08744V5.51166H1.08345C-0.363593 8.33731 -0.363593 11.6664 1.08345 14.492L4.4724 11.9162Z" fill="#FBBC04"/>
<path d="M10.2005 3.95738C11.6551 3.93533 13.0609 4.4718 14.1143 5.45655L17.0271 2.60151C15.1827 0.903916 12.7347 -0.0293931 10.2005 2.50159e-06C6.34298 2.50159e-06 2.81533 2.13118 1.08337 5.51167L4.47232 8.08745C5.27831 5.71744 7.53886 3.95738 10.2005 3.95738Z" fill="#EA4335"/>
</g>
<defs>
<clipPath id="clip0_1975_4254">
<rect width="20" height="20" fill="white"/>
</clipPath>
</defs>
</svg>
