<svg width="24" height="24" viewBox="0 0 24 24" fill="none" xmlns="http://www.w3.org/2000/svg">
<path d="M12 2.75C6.89137 2.75 2.75 6.89137 2.75 12C2.75 17.1086 6.89137 21.25 12 21.25C17.1086 21.25 21.25 17.1086 21.25 12C21.25 6.89137 17.1086 2.75 12 2.75ZM1.25 12C1.25 6.06294 6.06294 1.25 12 1.25C17.9371 1.25 22.75 6.06294 22.75 12C22.75 17.9371 17.9371 22.75 12 22.75C6.06294 22.75 1.25 17.9371 1.25 12Z" fill="#515C68"/>
<path d="M12 17.75C12.4142 17.75 12.75 18.0858 12.75 18.5V22C12.75 22.4142 12.4142 22.75 12 22.75C11.5858 22.75 11.25 22.4142 11.25 22V18.5C11.25 18.0858 11.5858 17.75 12 17.75Z" fill="#515C68"/>
<path d="M17.25 12C17.25 11.5858 17.5858 11.25 18 11.25H22C22.4142 11.25 22.75 11.5858 22.75 12C22.75 12.4142 22.4142 12.75 22 12.75H18C17.5858 12.75 17.25 12.4142 17.25 12Z" fill="#515C68"/>
<path d="M1.25 12C1.25 11.5858 1.58579 11.25 2 11.25H5.5C5.91421 11.25 6.25 11.5858 6.25 12C6.25 12.4142 5.91421 12.75 5.5 12.75H2C1.58579 12.75 1.25 12.4142 1.25 12Z" fill="#515C68"/>
<path d="M12 1.25C12.4142 1.25 12.75 1.58579 12.75 2V5.5C12.75 5.91421 12.4142 6.25 12 6.25C11.5858 6.25 11.25 5.91421 11.25 5.5V2C11.25 1.58579 11.5858 1.25 12 1.25Z" fill="#515C68"/>
</svg>
