<svg width="40" height="40" viewBox="0 0 40 40" fill="none" xmlns="http://www.w3.org/2000/svg">
<g clip-path="url(#clip0_1840_28411)">
<g filter="url(#filter0_d_1840_28411)">
<path d="M6.66675 15.4167C6.66675 7.82272 12.8228 1.66666 20.4167 1.66666C28.0107 1.66666 34.1667 7.82272 34.1667 15.4167C34.1667 21.2763 30.811 26.7694 27.6377 30.6831C26.0319 32.6636 24.429 34.2928 23.2282 35.427C22.6269 35.9948 22.1244 36.4405 21.7699 36.746C21.5927 36.8988 21.4522 37.0167 21.3548 37.0974C21.3061 37.1378 21.2682 37.1689 21.2417 37.1904L21.2108 37.2155L21.2019 37.2226L21.1992 37.2248C21.1992 37.2248 21.1976 37.2261 20.4167 36.25C19.6359 37.2261 19.6352 37.2256 19.6352 37.2256L19.6316 37.2226L19.6227 37.2155L19.5918 37.1904C19.5653 37.1689 19.5274 37.1378 19.4787 37.0974C19.3813 37.0167 19.2408 36.8988 19.0636 36.746C18.7091 36.4405 18.2066 35.9948 17.6053 35.427C16.4045 34.2928 14.8016 32.6636 13.1958 30.6831C10.0225 26.7694 6.66675 21.2763 6.66675 15.4167ZM20.4167 36.25L21.1976 37.2261C20.7411 37.5913 20.0918 37.5908 19.6352 37.2256L20.4167 36.25ZM14.1667 15.4167C14.1667 18.8684 16.965 21.6667 20.4167 21.6667C23.8685 21.6667 26.6667 18.8684 26.6667 15.4167C26.6667 11.9649 23.8685 9.16666 20.4167 9.16666C16.965 9.16666 14.1667 11.9649 14.1667 15.4167Z" fill="#FF744D"/>
</g>
<circle cx="20.4167" cy="15.4167" r="6.66667" fill="white"/>
</g>
<defs>
<filter id="filter0_d_1840_28411" x="4.66675" y="0.666656" width="31.5" height="39.8331" filterUnits="userSpaceOnUse" color-interpolation-filters="sRGB">
<feFlood flood-opacity="0" result="BackgroundImageFix"/>
<feColorMatrix in="SourceAlpha" type="matrix" values="0 0 0 0 0 0 0 0 0 0 0 0 0 0 0 0 0 0 127 0" result="hardAlpha"/>
<feOffset dy="1"/>
<feGaussianBlur stdDeviation="1"/>
<feComposite in2="hardAlpha" operator="out"/>
<feColorMatrix type="matrix" values="0 0 0 0 0.0588235 0 0 0 0 0.0901961 0 0 0 0 0.164706 0 0 0 0.25 0"/>
<feBlend mode="normal" in2="BackgroundImageFix" result="effect1_dropShadow_1840_28411"/>
<feBlend mode="normal" in="SourceGraphic" in2="effect1_dropShadow_1840_28411" result="shape"/>
</filter>
<clipPath id="clip0_1840_28411">
<rect width="40" height="40" fill="white"/>
</clipPath>
</defs>
</svg>
